Fly_normalized_Motion_pl11
version=1
nRows=24
nColumns=43
inDegrees=yes
endheader
time		pelvis_tilt		pelvis_list		pelvis_rotation		pelvis_tx		pelvis_ty		pelvis_tz		hip_flexion_r		hip_adduction_r		hip_rotation_r		knee_angle_r		ankle_angle_r		subtalar_angle_r		mtp_angle_r		hip_flexion_l		hip_adduction_l		hip_rotation_l		knee_angle_l		ankle_angle_l		subtalar_angle_l		mtp_angle_l		lumbar_extension		lumbar_bending		lumbar_rotation		neck_flexion		neck_lateral_bending		neck_rotation		arm_flex_r		arm_add_r		arm_rot_r		elbow_flex_r		pro_sup_r		wrist_flex_r		wrist_dev_r		hand_finger_flex_r		arm_flex_l		arm_add_l		arm_rot_l		elbow_flex_l		pro_sup_l		wrist_flex_l		wrist_dev_l		hand_finger_flex_l		
0.936667		-0.502891		8.414059		92.624431		-0.005010		1.544425		0.836006		34.504077		-5.940930		-8.524829		-48.666537		-23.494089		1.741213		6.554867		29.302024		-2.901952		-12.194135		-43.159604		-22.389358		-22.463786		15.822836		-53.109253		2.573941		0.880713		-13.871688		-0.942217		-1.964175		-11.597802		-32.344006		-5.982322		60.845214		83.050929		-29.547734		-7.156225		27.856151		-21.051120		-34.457445		-12.185691		76.684033		109.303009		-14.179259		3.111059		90.000210		
0.941010		-0.477618		8.688335		92.585488		-0.005184		1.531329		0.824989		33.607448		-5.925316		-8.795689		-47.556942		-23.784222		1.913414		6.493823		28.582420		-2.967380		-12.231741		-42.230005		-22.635697		-22.316660		15.955099		-52.535618		2.519029		0.849416		-15.283354		-0.768727		-1.980798		-14.340523		-31.731605		-6.993475		59.907508		83.057384		-29.361843		-7.169111		27.446192		-23.941889		-33.793100		-13.342673		75.803715		109.047018		-14.251946		2.704427		90.000210		
0.945354		-0.453395		8.897176		92.501235		-0.005287		1.518000		0.813823		32.764793		-5.907119		-9.090833		-46.437213		-24.093971		2.049641		6.423692		27.913583		-3.044963		-12.245996		-41.328299		-22.818359		-22.129651		16.063060		-51.886506		2.440482		0.818889		-16.708102		-0.658107		-2.041642		-16.992791		-30.970660		-8.119001		58.967894		82.882287		-29.349748		-7.175770		27.141021		-26.761567		-33.038686		-14.500695		74.826995		108.774288		-14.438741		2.464466		90.000210		
0.949697		-0.386906		9.488490		92.518526		-0.005623		1.505347		0.802521		31.363908		-5.880134		-9.568750		-45.149634		-24.324313		2.208262		6.389230		26.749018		-3.132027		-12.219763		-40.275859		-22.884964		-21.636301		16.599883		-51.655568		2.492015		0.774863		-17.984031		-0.592351		-2.045887		-19.619765		-30.247796		-9.441358		58.052327		82.743681		-28.275562		-7.279926		26.360885		-29.508541		-32.295386		-15.536682		73.852458		108.360910		-14.870200		1.387351		90.000210		
0.954040		-0.378440		9.596416		92.457667		-0.005939		1.491465		0.791311		30.626072		-5.849942		-9.761957		-44.050611		-24.569908		2.272010		6.339856		26.168315		-3.155040		-12.227049		-39.299852		-23.118353		-21.458882		16.726042		-50.844298		2.439530		0.758792		-19.505793		-0.532306		-2.126414		-22.284072		-29.543560		-10.436245		57.249356		82.479369		-28.363640		-7.216559		26.037309		-32.153151		-31.506923		-16.488372		72.966087		108.117784		-15.112683		1.333429		89.995057		
0.958384		-0.396412		9.709036		92.374144		-0.006237		1.477434		0.780025		29.874025		-5.847300		-9.977078		-42.956407		-24.791338		2.318578		6.298473		25.579282		-3.153557		-12.218565		-38.334582		-23.351112		-21.288981		16.811683		-50.015561		2.354987		0.723943		-21.069343		-0.512823		-2.201320		-24.910141		-28.809629		-11.445027		56.500964		82.045029		-28.426819		-7.153747		25.858397		-34.738178		-30.660813		-17.453675		72.101116		107.823821		-15.416037		1.351662		89.980557		
0.962727		-0.433579		10.172059		92.336220		-0.006488		1.464102		0.768486		28.610804		-5.887545		-10.370343		-41.727027		-24.941896		2.394231		6.357507		24.502770		-3.153586		-12.304864		-37.214957		-23.509899		-20.984520		17.270056		-49.585629		2.295060		0.672472		-22.465943		-0.577222		-2.276587		-27.452579		-27.978466		-12.707796		55.814529		80.877662		-27.657173		-6.914184		25.428398		-37.224682		-29.851036		-18.269799		71.182690		107.005084		-16.250670		1.016550		89.856574		
0.967071		-0.453887		10.279059		92.177606		-0.006623		1.449685		0.757010		27.863274		-5.861086		-10.551063		-40.666560		-25.106001		2.390378		6.354805		23.903969		-3.184558		-12.334883		-36.257499		-23.815222		-20.794739		17.392283		-48.722426		2.144418		0.675628		-24.073668		-0.507648		-2.339089		-30.077550		-27.249216		-13.585404		55.297271		80.385646		-27.794569		-6.828809		25.168798		-39.776360		-28.969387		-19.156729		70.498526		106.540683		-16.590701		1.038418		89.937871		
0.971414		-0.472180		10.363669		92.083838		-0.006990		1.435174		0.745533		27.089620		-5.845036		-10.711905		-39.550198		-25.230922		2.334582		6.362657		23.265298		-3.186491		-12.461122		-35.161220		-24.093598		-20.552828		17.518980		-47.852646		2.063938		0.668338		-25.564311		-0.470338		-2.366210		-32.672284		-26.515707		-14.501012		54.838908		79.721759		-27.837206		-6.652838		24.955237		-42.264477		-28.079530		-19.992345		69.963715		105.978384		-16.930536		1.028271		90.000210		
0.975758		-0.499034		10.819159		91.935062		-0.006942		1.421293		0.733840		25.818241		-5.788066		-10.976883		-38.286779		-25.395040		2.138280		6.565392		22.101560		-3.271356		-12.766572		-33.921545		-24.250739		-19.945646		18.230442		-47.429159		1.914857		0.718011		-26.840621		-0.457564		-2.388316		-35.271259		-25.747818		-15.510307		54.692460		77.786017		-27.309096		-5.988283		24.108297		-44.727673		-27.375823		-20.485328		69.404365		104.514940		-17.785700		0.845403		90.000210		
0.980101		-0.469042		10.747986		91.867657		-0.007021		1.406167		0.722265		25.178988		-5.720137		-11.204163		-37.144620		-25.503862		2.006452		6.568302		21.642578		-3.327893		-12.851972		-32.829384		-24.548093		-19.704120		18.326523		-46.400358		1.846951		0.718337		-28.321675		-0.405496		-2.387561		-37.806398		-24.954757		-16.298165		54.372534		77.337466		-27.535866		-5.988707		23.873055		-47.201162		-26.497420		-21.312921		69.010118		104.223119		-18.030630		0.918878		90.000210		
0.984444		-0.412244		10.713972		91.824359		-0.006998		1.390977		0.710620		24.460040		-5.622734		-11.521239		-35.952669		-25.644335		1.719316		6.563646		21.114299		-3.412233		-12.933020		-31.674661		-24.784189		-19.354338		18.457668		-45.404588		1.802315		0.700648		-29.796049		-0.337057		-2.353238		-40.313680		-24.120097		-17.147921		54.236865		76.620214		-27.632333		-5.831047		23.666330		-49.637168		-25.644476		-22.088101		68.675983		103.918034		-18.298832		1.018499		90.000210		
0.988788		-0.153100		11.062070		91.851328		-0.006761		1.376354		0.698790		23.179985		-5.311923		-12.168647		-34.561724		-26.006822		1.030233		6.674567		20.157635		-3.741254		-12.959533		-30.514681		-24.752866		-18.508872		19.231158		-44.833230		1.974271		0.759822		-31.155791		-0.240876		-2.331233		-42.856575		-23.321638		-17.965465		54.464728		74.541880		-27.313540		-5.195021		22.815561		-52.032856		-24.905140		-22.620715		68.404665		103.464228		-19.039270		1.340522		90.000210		
0.993131		-0.112569		11.055717		91.813110		-0.006532		1.360896		0.686950		22.393530		-5.217764		-12.584245		-33.371067		-26.088709		0.739846		6.669307		19.578484		-3.809944		-13.081970		-29.337476		-24.944660		-18.260837		19.437248		-43.846769		1.881367		0.692548		-32.676439		-0.097378		-2.255266		-45.299421		-22.458809		-18.699533		54.521006		73.913222		-27.376263		-5.175337		22.560870		-54.424370		-24.068050		-23.373108		68.224532		103.283996		-19.339929		1.422607		90.000210		
0.997475		-0.010670		11.539062		91.843969		-0.006696		1.346228		0.675070		20.927326		-5.086324		-13.183787		-31.919060		-26.260812		0.208612		6.676441		18.362001		-3.936378		-13.253062		-27.960641		-24.962576		-17.622183		20.250132		-43.433572		1.929521		0.670754		-33.885444		0.087440		-2.121432		-47.805363		-21.728833		-19.443278		54.943791		72.290245		-26.942695		-4.545276		21.924629		-56.777728		-23.297631		-23.899632		68.303007		103.024771		-19.921617		1.502312		90.000210		
1.001818		-0.038482		11.382555		91.787886		-0.006607		1.330149		0.663434		20.298149		-5.047749		-13.481336		-30.659004		-26.178873		0.046181		6.659633		17.907635		-3.901732		-13.396184		-26.676167		-25.045508		-17.518375		20.359111		-42.358410		1.759245		0.608942		-35.020760		0.238971		-2.066910		-50.185544		-20.938494		-19.990613		55.180222		72.003320		-26.960181		-4.628368		21.846413		-59.061213		-22.537253		-24.489658		68.385887		102.840073		-20.035063		1.448690		90.000210		
1.006162		-0.151622		11.770760		91.793065		-0.006846		1.314920		0.651399		19.064496		-5.137538		-13.961474		-29.493304		-26.090729		-0.292002		6.656355		16.762733		-3.802414		-13.772777		-25.287563		-25.108006		-17.059048		20.827473		-41.808765		1.594751		0.520724		-36.495531		0.458018		-1.898991		-52.634750		-20.011948		-21.015786		55.775891		71.004008		-26.571007		-4.095099		21.677989		-61.296375		-21.739191		-25.167285		68.629947		102.414473		-20.134987		1.128186		90.000210		
1.010505		-0.258139		12.128887		91.751409		-0.006950		1.299546		0.639591		17.802438		-5.169972		-14.402407		-28.138371		-25.927055		-0.515286		6.708368		15.613934		-3.704211		-14.141373		-23.806922		-25.077360		-16.571929		21.441727		-41.320944		1.398158		0.494283		-37.534254		0.598016		-1.810981		-54.971277		-19.133582		-21.885143		56.387792		70.104962		-26.121210		-3.611080		21.407261		-63.396768		-21.026665		-25.727620		68.907168		102.018295		-20.142128		0.737028		90.000210		
1.014848		-0.363361		12.394457		91.715801		-0.006878		1.283825		0.627851		16.689273		-5.185043		-14.831353		-26.862233		-25.721848		-0.709110		6.838873		14.603677		-3.608075		-14.455052		-22.384137		-25.037584		-16.108880		22.056643		-40.746303		1.183773		0.482025		-38.587251		0.724446		-1.779597		-57.221317		-18.176970		-22.793336		57.029009		69.410364		-25.690939		-3.311757		21.136257		-65.390366		-20.354258		-26.328722		69.192526		101.746305		-20.042634		0.336904		90.000210		
1.019192		-0.493479		12.639278		91.708650		-0.006770		1.267959		0.616184		15.597636		-5.229029		-15.349751		-25.595663		-25.445988		-0.930580		7.032416		13.638037		-3.473853		-14.705491		-21.000369		-24.966330		-15.610675		22.480346		-40.184115		0.964557		0.477787		-39.603584		0.832029		-1.791097		-59.304037		-17.074681		-23.930957		57.667352		68.662171		-25.222715		-2.967480		21.064518		-67.222409		-19.757588		-26.922679		69.456495		101.664047		-19.895280		-0.005396		90.000210		
1.023535		-0.574841		12.840419		91.715050		-0.006630		1.251832		0.604878		14.577523		-5.195876		-15.727053		-24.315374		-25.271524		-0.963598		7.259935		12.770032		-3.373365		-14.878586		-19.638948		-24.891420		-15.142991		22.889224		-39.659467		0.786777		0.476770		-40.259940		0.965678		-1.842166		-61.247720		-16.126602		-24.820379		58.265814		68.107334		-24.784169		-2.736052		20.973415		-68.909508		-19.217324		-27.448037		69.764095		101.655844		-19.749436		-0.284502		90.000210		
1.027879		-0.646940		13.223509		91.735022		-0.006820		1.235843		0.593611		13.421526		-5.198628		-16.106211		-23.165940		-25.207587		-0.869878		7.636964		11.745583		-3.268848		-15.033912		-18.369416		-24.883619		-14.555698		23.482250		-39.325312		0.667085		0.508896		-41.096439		1.164873		-1.901974		-63.136999		-15.197466		-25.813211		58.940405		67.576350		-24.282287		-2.538062		20.759257		-70.489058		-18.642454		-28.064769		70.188496		101.712311		-19.589184		-0.555090		89.993926		
1.032222		-0.733431		13.752490		91.728119		-0.006504		1.220033		0.582590		12.062876		-5.157452		-16.578714		-21.895879		-25.210842		-0.608874		8.346451		10.552873		-3.192049		-15.227391		-17.068366		-24.867232		-13.834629		24.515882		-39.260709		0.461558		0.489859		-41.468844		1.326222		-1.953048		-64.670012		-14.329987		-26.736723		59.487539		67.101628		-23.653761		-2.233938		20.251781		-71.881064		-18.175791		-28.608516		70.491417		101.903151		-19.360247		-0.736004		89.975186		
1.036566		-0.834304		13.670378		91.718783		-0.006393		1.202955		0.572052		11.622219		-5.157763		-16.678978		-21.028842		-25.235610		-0.610529		8.441210		10.218301		-3.043524		-15.017744		-16.074414		-24.971545		-13.558155		24.670436		-38.563496		0.253502		0.465529		-42.085169		1.548549		-1.919255		-66.019538		-13.528156		-27.542301		59.909658		66.868619		-23.658756		-2.358985		20.187528		-73.126365		-17.714224		-29.123634		70.827422		101.869087		-19.418543		-0.817798		89.994335		
